<?xml version="1.0" encoding="iso-8859-1"?>
<!-- Generator: Adobe Illustrator 15.1.0, SVG Export Plug-In . SVG Version: 6.00 Build 0)  -->
<!DOCTYPE svg PUBLIC "-//W3C//DTD SVG 1.1//EN" "http://www.w3.org/Graphics/SVG/1.1/DTD/svg11.dtd">
<svg version="1.1" id="&#x30EC;&#x30A4;&#x30E4;&#x30FC;_1"
	 xmlns="http://www.w3.org/2000/svg" xmlns:xlink="http://www.w3.org/1999/xlink" x="0px" y="0px" width="64.098px"
	 height="21.566px" viewBox="0 0 64.098 21.566" style="enable-background:new 0 0 64.098 21.566;" xml:space="preserve">
<g>
	<path d="M12.914,15.25l2.273,0.574c-0.477,1.867-1.334,3.291-2.572,4.271s-2.752,1.471-4.541,1.471
		c-1.852,0-3.357-0.377-4.518-1.131s-2.043-1.846-2.648-3.275S0,14.195,0,12.554c0-1.789,0.342-3.35,1.025-4.682
		s1.656-2.344,2.918-3.035S6.594,3.8,8.109,3.8c1.719,0,3.164,0.438,4.336,1.313s1.988,2.105,2.449,3.691l-2.238,0.527
		c-0.398-1.25-0.977-2.16-1.734-2.73S9.211,5.746,8.063,5.746c-1.32,0-2.424,0.316-3.311,0.949s-1.51,1.482-1.869,2.549
		s-0.539,2.166-0.539,3.299c0,1.461,0.213,2.736,0.639,3.826s1.088,1.904,1.986,2.443s1.871,0.809,2.918,0.809
		c1.273,0,2.352-0.367,3.234-1.102S12.602,16.695,12.914,15.25z"/>
	<path d="M19.814,12.684v4.871h-0.718v-4.604l-1.487,0.533v-2.256l1.487-0.523V8.06l-1.487,0.523V6.337l1.487-0.523V1.466h0.718
		v4.091l2.389-0.861V0h0.718v4.45l1.497-0.523v2.225l-1.497,0.523v2.646l1.497-0.523v2.225l-1.497,0.523v4.512h-0.718v-4.235
		L19.814,12.684z M19.814,10.459l2.389-0.882V6.932l-2.389,0.882V10.459z"/>
	<path d="M33.143,21.273v-1.178c-0.592,0.926-1.462,1.389-2.61,1.389c-0.744,0-1.428-0.205-2.052-0.615s-1.107-0.983-1.45-1.718
		s-0.514-1.581-0.514-2.536c0-0.932,0.155-1.777,0.466-2.536s0.776-1.34,1.397-1.745s1.315-0.606,2.083-0.606
		c0.563,0,1.063,0.119,1.503,0.356s0.797,0.546,1.072,0.927V8.388h1.573v12.885H33.143z M28.142,16.615
		c0,1.195,0.252,2.089,0.756,2.681s1.099,0.888,1.784,0.888c0.691,0,1.279-0.283,1.762-0.848s0.725-1.428,0.725-2.588
		c0-1.277-0.246-2.215-0.738-2.813s-1.099-0.896-1.819-0.896c-0.703,0-1.291,0.287-1.762,0.861S28.142,15.378,28.142,16.615z"/>
	<path d="M37.106,10.208V8.388h1.582v1.819H37.106z M37.106,21.273v-9.334h1.582v9.334H37.106z"/>
	<path d="M41.097,21.273v-9.334h1.415v1.31c0.293-0.457,0.683-0.825,1.169-1.103s1.04-0.417,1.661-0.417
		c0.691,0,1.258,0.144,1.701,0.431s0.754,0.688,0.936,1.204c0.738-1.09,1.699-1.635,2.883-1.635c0.926,0,1.638,0.256,2.136,0.769
		s0.747,1.302,0.747,2.369v6.407h-1.573v-5.88c0-0.633-0.051-1.088-0.154-1.367s-0.289-0.502-0.558-0.672s-0.586-0.255-0.949-0.255
		c-0.656,0-1.201,0.218-1.635,0.655s-0.65,1.135-0.65,2.096v5.423h-1.582v-6.064c0-0.703-0.129-1.23-0.387-1.582
		s-0.68-0.527-1.266-0.527c-0.445,0-0.857,0.117-1.235,0.352s-0.652,0.577-0.822,1.028s-0.255,1.102-0.255,1.951v4.843H41.097z"/>
	<path d="M55.757,10.076V8.555h8.341v1.23c-0.82,0.873-1.633,2.033-2.439,3.48s-1.428,2.936-1.868,4.465
		c-0.316,1.078-0.519,2.259-0.606,3.542h-1.626c0.018-1.014,0.217-2.238,0.598-3.674s0.927-2.82,1.639-4.153
		s1.469-2.457,2.272-3.371H55.757z"/>
</g>
</svg>
