<?xml version="1.0" encoding="iso-8859-1"?>
<!-- Generator: Adobe Illustrator 15.1.0, SVG Export Plug-In . SVG Version: 6.00 Build 0)  -->
<!DOCTYPE svg PUBLIC "-//W3C//DTD SVG 1.1//EN" "http://www.w3.org/Graphics/SVG/1.1/DTD/svg11.dtd">
<svg version="1.1" id="&#x30EC;&#x30A4;&#x30E4;&#x30FC;_1"
	 xmlns="http://www.w3.org/2000/svg" xmlns:xlink="http://www.w3.org/1999/xlink" x="0px" y="0px" width="55.318px"
	 height="17.766px" viewBox="0 0 55.318 17.766" style="enable-background:new 0 0 55.318 17.766;" xml:space="preserve">
<g>
	<path d="M12.914,11.449l2.273,0.574c-0.477,1.867-1.334,3.291-2.572,4.271s-2.752,1.471-4.541,1.471
		c-1.852,0-3.357-0.377-4.518-1.131s-2.043-1.846-2.648-3.275S0,10.395,0,8.754c0-1.789,0.342-3.35,1.025-4.682
		s1.656-2.344,2.918-3.035S6.594,0,8.109,0c1.719,0,3.164,0.438,4.336,1.313s1.988,2.105,2.449,3.691l-2.238,0.527
		c-0.398-1.25-0.977-2.16-1.734-2.73S9.211,1.945,8.063,1.945c-1.32,0-2.424,0.316-3.311,0.949s-1.51,1.482-1.869,2.549
		S2.344,7.609,2.344,8.742c0,1.461,0.213,2.736,0.639,3.826s1.088,1.904,1.986,2.443S6.84,15.82,7.887,15.82
		c1.273,0,2.352-0.367,3.234-1.102S12.602,12.895,12.914,11.449z"/>
	<path d="M17.323,17.473V8.139h1.415v1.31c0.293-0.457,0.683-0.825,1.169-1.103s1.04-0.417,1.661-0.417
		c0.691,0,1.258,0.144,1.701,0.431s0.754,0.688,0.936,1.204c0.738-1.09,1.699-1.635,2.883-1.635c0.926,0,1.638,0.256,2.136,0.769
		s0.747,1.302,0.747,2.369v6.407h-1.573v-5.88c0-0.633-0.051-1.088-0.154-1.367s-0.289-0.502-0.558-0.672S27.1,9.299,26.736,9.299
		c-0.656,0-1.201,0.218-1.635,0.655s-0.65,1.135-0.65,2.096v5.423h-1.582v-6.064c0-0.703-0.129-1.23-0.387-1.582
		s-0.68-0.527-1.266-0.527c-0.445,0-0.857,0.117-1.235,0.352s-0.652,0.577-0.822,1.028s-0.255,1.102-0.255,1.951v4.843H17.323z"/>
	<path d="M32.467,17.473V4.588h2.566l3.05,9.123c0.281,0.85,0.486,1.485,0.615,1.907c0.146-0.469,0.375-1.157,0.686-2.065
		l3.085-8.965h2.294v12.885h-1.644V6.688l-3.744,10.784h-1.538L34.11,6.504v10.969H32.467z"/>
	<path d="M46.978,6.275V4.755h8.341v1.23c-0.82,0.873-1.633,2.033-2.439,3.48s-1.428,2.936-1.868,4.465
		c-0.316,1.078-0.519,2.259-0.606,3.542h-1.626c0.018-1.014,0.217-2.238,0.598-3.674s0.927-2.82,1.639-4.153
		s1.469-2.457,2.272-3.371H46.978z"/>
</g>
</svg>
