<?xml version="1.0" encoding="iso-8859-1"?>
<!-- Generator: Adobe Illustrator 15.1.0, SVG Export Plug-In . SVG Version: 6.00 Build 0)  -->
<!DOCTYPE svg PUBLIC "-//W3C//DTD SVG 1.1//EN" "http://www.w3.org/Graphics/SVG/1.1/DTD/svg11.dtd">
<svg version="1.1" id="&#x30EC;&#x30A4;&#x30E4;&#x30FC;_1"
	 xmlns="http://www.w3.org/2000/svg" xmlns:xlink="http://www.w3.org/1999/xlink" x="0px" y="0px" width="36.879px"
	 height="17.18px" viewBox="0 0 36.879 17.18" style="enable-background:new 0 0 36.879 17.18;" xml:space="preserve">
<g>
	<path d="M0,17.18V0h11.59v2.027H2.273v5.32h8.063v2.027H2.273v7.805H0z"/>
	<path d="M14.027,17.18V4.295h2.566l3.05,9.123c0.281,0.85,0.486,1.485,0.615,1.907c0.146-0.469,0.375-1.157,0.686-2.065
		l3.085-8.965h2.294V17.18H24.68V6.396L20.936,17.18h-1.538L15.671,6.211V17.18H14.027z"/>
	<path d="M28.538,5.982V4.462h8.341v1.23c-0.82,0.873-1.633,2.033-2.439,3.48s-1.428,2.936-1.868,4.465
		c-0.316,1.078-0.519,2.259-0.606,3.542H30.34c0.018-1.014,0.217-2.238,0.598-3.674s0.927-2.82,1.639-4.153s1.469-2.457,2.272-3.371
		H28.538z"/>
</g>
</svg>
