<?xml version="1.0" encoding="iso-8859-1"?>
<!-- Generator: Adobe Illustrator 15.1.0, SVG Export Plug-In . SVG Version: 6.00 Build 0)  -->
<!DOCTYPE svg PUBLIC "-//W3C//DTD SVG 1.1//EN" "http://www.w3.org/Graphics/SVG/1.1/DTD/svg11.dtd">
<svg version="1.1" id="&#x30EC;&#x30A4;&#x30E4;&#x30FC;_1"
	 xmlns="http://www.w3.org/2000/svg" xmlns:xlink="http://www.w3.org/1999/xlink" x="0px" y="0px" width="24.674px"
	 height="17.18px" viewBox="0 0 24.674 17.18" style="enable-background:new 0 0 24.674 17.18;" xml:space="preserve">
<g>
	<path d="M0,17.18V0h5.918c1.336,0,2.355,0.082,3.059,0.246c0.984,0.227,1.824,0.637,2.52,1.23c0.906,0.766,1.584,1.744,2.033,2.936
		s0.674,2.553,0.674,4.084c0,1.305-0.152,2.461-0.457,3.469s-0.695,1.842-1.172,2.502s-0.998,1.18-1.564,1.559
		s-1.25,0.666-2.051,0.861s-1.721,0.293-2.76,0.293H0z M2.273,15.152h3.668c1.133,0,2.021-0.105,2.666-0.316
		s1.158-0.508,1.541-0.891c0.539-0.539,0.959-1.264,1.26-2.174s0.451-2.014,0.451-3.311c0-1.797-0.295-3.178-0.885-4.143
		s-1.307-1.611-2.15-1.939c-0.609-0.234-1.59-0.352-2.941-0.352H2.273V15.152z"/>
	<path d="M16.333,5.982V4.462h8.341v1.23c-0.82,0.873-1.633,2.033-2.439,3.48s-1.428,2.936-1.868,4.465
		c-0.316,1.078-0.519,2.259-0.606,3.542h-1.626c0.018-1.014,0.217-2.238,0.598-3.674s0.927-2.82,1.639-4.153
		s1.469-2.457,2.272-3.371H16.333z"/>
</g>
</svg>
