<?xml version="1.0" encoding="iso-8859-1"?>
<!-- Generator: Adobe Illustrator 15.1.0, SVG Export Plug-In . SVG Version: 6.00 Build 0)  -->
<!DOCTYPE svg PUBLIC "-//W3C//DTD SVG 1.1//EN" "http://www.w3.org/Graphics/SVG/1.1/DTD/svg11.dtd">
<svg version="1.1" id="&#x30EC;&#x30A4;&#x30E4;&#x30FC;_1"
	 xmlns="http://www.w3.org/2000/svg" xmlns:xlink="http://www.w3.org/1999/xlink" x="0px" y="0px" width="53.628px"
	 height="18.24px" viewBox="0 0 53.628 18.24" style="enable-background:new 0 0 53.628 18.24;" xml:space="preserve">
<g>
	<path d="M12.914,11.924l2.273,0.574c-0.477,1.867-1.334,3.291-2.572,4.271S9.863,18.24,8.074,18.24
		c-1.852,0-3.357-0.377-4.518-1.131s-2.043-1.846-2.648-3.275S0,10.869,0,9.229c0-1.789,0.342-3.35,1.025-4.682
		s1.656-2.344,2.918-3.035s2.65-1.037,4.166-1.037c1.719,0,3.164,0.438,4.336,1.313s1.988,2.105,2.449,3.691l-2.238,0.527
		c-0.398-1.25-0.977-2.16-1.734-2.73S9.211,2.42,8.063,2.42c-1.32,0-2.424,0.316-3.311,0.949s-1.51,1.482-1.869,2.549
		S2.344,8.084,2.344,9.217c0,1.461,0.213,2.736,0.639,3.826s1.088,1.904,1.986,2.443s1.871,0.809,2.918,0.809
		c1.273,0,2.352-0.367,3.234-1.102S12.602,13.369,12.914,11.924z"/>
	<path d="M17.323,17.947V8.613h1.415v1.31c0.293-0.457,0.683-0.825,1.169-1.103s1.04-0.417,1.661-0.417
		c0.691,0,1.258,0.144,1.701,0.431s0.754,0.688,0.936,1.204c0.738-1.09,1.699-1.635,2.883-1.635c0.926,0,1.638,0.256,2.136,0.769
		s0.747,1.302,0.747,2.369v6.407h-1.573v-5.88c0-0.633-0.051-1.088-0.154-1.367s-0.289-0.502-0.558-0.672S27.1,9.773,26.736,9.773
		c-0.656,0-1.201,0.218-1.635,0.655s-0.65,1.135-0.65,2.096v5.423h-1.582v-6.064c0-0.703-0.129-1.23-0.387-1.582
		s-0.68-0.527-1.266-0.527c-0.445,0-0.857,0.117-1.235,0.352s-0.652,0.577-0.822,1.028s-0.255,1.102-0.255,1.951v4.843H17.323z"/>
	<path d="M34.405,13.812c-0.679-0.857-1.253-1.859-1.723-3.008s-0.704-2.338-0.704-3.568c0-1.084,0.175-2.124,0.526-3.117
		c0.41-1.153,1.043-2.301,1.9-3.445h0.882c-0.551,0.948-0.916,1.625-1.094,2.03c-0.278,0.629-0.497,1.285-0.656,1.969
		c-0.196,0.852-0.294,1.709-0.294,2.57c0,2.192,0.681,4.382,2.044,6.569H34.405z"/>
	<path d="M36.897,0h0.492v7.267c0.337-0.442,0.684-0.775,1.039-0.998c0.351-0.223,0.734-0.335,1.148-0.335
		c0.469,0,0.852,0.139,1.148,0.417c0.287,0.278,0.431,0.677,0.431,1.196c0,0.674-0.276,1.294-0.827,1.859
		c-0.456,0.479-1.105,0.996-1.948,1.552c-0.424,0.273-0.759,0.522-1.005,0.745h-0.479V0z M37.39,7.882v3.261
		c0.92-0.711,1.554-1.322,1.9-1.832c0.365-0.52,0.547-1.057,0.547-1.613c0-0.269-0.107-0.501-0.321-0.697
		c-0.15-0.132-0.36-0.198-0.629-0.198c-0.219,0-0.465,0.096-0.738,0.287S37.622,7.544,37.39,7.882z"/>
	<path d="M42.267,8.241l1.292-0.109c0.096,0.629,0.318,1.102,0.667,1.418s0.769,0.475,1.261,0.475c0.592,0,1.094-0.223,1.504-0.67
		s0.615-1.039,0.615-1.777c0-0.702-0.197-1.255-0.591-1.661s-0.91-0.608-1.548-0.608c-0.396,0-0.754,0.09-1.073,0.27
		s-0.57,0.414-0.752,0.701l-1.155-0.15l0.971-5.147h4.983v1.176H44.44L43.9,4.85c0.602-0.419,1.233-0.629,1.894-0.629
		c0.875,0,1.613,0.303,2.215,0.909s0.902,1.385,0.902,2.338c0,0.907-0.264,1.691-0.793,2.352c-0.643,0.811-1.52,1.217-2.632,1.217
		c-0.912,0-1.655-0.255-2.232-0.766S42.349,9.084,42.267,8.241z"/>
	<path d="M51.201,13.812h-0.882c1.363-2.188,2.044-4.377,2.044-6.569c0-0.857-0.098-1.707-0.294-2.55
		c-0.155-0.684-0.372-1.34-0.649-1.969c-0.178-0.41-0.544-1.094-1.101-2.051h0.882c0.857,1.144,1.49,2.292,1.9,3.445
		c0.351,0.994,0.526,2.033,0.526,3.117c0,1.23-0.236,2.42-0.708,3.568S51.875,12.955,51.201,13.812z"/>
</g>
</svg>
