<?xml version="1.0" encoding="iso-8859-1"?>
<!-- Generator: Adobe Illustrator 15.1.0, SVG Export Plug-In . SVG Version: 6.00 Build 0)  -->
<!DOCTYPE svg PUBLIC "-//W3C//DTD SVG 1.1//EN" "http://www.w3.org/Graphics/SVG/1.1/DTD/svg11.dtd">
<svg version="1.1" id="&#x30EC;&#x30A4;&#x30E4;&#x30FC;_1"
	 xmlns="http://www.w3.org/2000/svg" xmlns:xlink="http://www.w3.org/1999/xlink" x="0px" y="0px" width="34.916px"
	 height="25.773px" viewBox="0 0 34.916 25.773" style="enable-background:new 0 0 34.916 25.773;" xml:space="preserve">
<g>
	<path d="M0,25.773l6.598-17.18h2.449l7.031,17.18h-2.59l-2.004-5.203H4.301l-1.887,5.203H0z M4.957,18.718h5.824L8.988,13.96
		c-0.547-1.445-0.953-2.633-1.219-3.563c-0.219,1.102-0.527,2.195-0.926,3.281L4.957,18.718z"/>
	<path d="M18.541,0h0.738v10.9c0.506-0.663,1.025-1.162,1.559-1.497C21.364,9.068,21.938,8.9,22.561,8.9
		c0.704,0,1.278,0.208,1.723,0.625c0.431,0.417,0.646,1.015,0.646,1.794c0,1.012-0.414,1.941-1.241,2.789
		c-0.684,0.718-1.658,1.494-2.922,2.328c-0.636,0.41-1.138,0.783-1.507,1.118h-0.718V0z M19.279,11.823v4.891
		c1.381-1.066,2.331-1.982,2.851-2.748c0.547-0.779,0.82-1.586,0.82-2.42c0-0.403-0.161-0.752-0.482-1.046
		c-0.226-0.198-0.54-0.297-0.943-0.297c-0.328,0-0.697,0.144-1.107,0.431S19.628,11.317,19.279,11.823z"/>
	<path d="M26.575,14.576v-1.521h8.341v1.23c-0.82,0.873-1.633,2.033-2.439,3.48s-1.428,2.936-1.868,4.465
		c-0.316,1.078-0.519,2.259-0.606,3.542h-1.626c0.018-1.014,0.217-2.238,0.598-3.674s0.927-2.82,1.639-4.153
		s1.469-2.457,2.272-3.371H26.575z"/>
</g>
</svg>
