<?xml version="1.0" encoding="iso-8859-1"?>
<!-- Generator: Adobe Illustrator 15.1.0, SVG Export Plug-In . SVG Version: 6.00 Build 0)  -->
<!DOCTYPE svg PUBLIC "-//W3C//DTD SVG 1.1//EN" "http://www.w3.org/Graphics/SVG/1.1/DTD/svg11.dtd">
<svg version="1.1" id="&#x30EC;&#x30A4;&#x30E4;&#x30FC;_1"
	 xmlns="http://www.w3.org/2000/svg" xmlns:xlink="http://www.w3.org/1999/xlink" x="0px" y="0px" width="47.977px"
	 height="25.773px" viewBox="0 0 47.977 25.773" style="enable-background:new 0 0 47.977 25.773;" xml:space="preserve">
<g>
	<path d="M0,25.773V8.593h12.422v2.027H2.273v5.262h9.504v2.016H2.273v5.848H12.82v2.027H0z"/>
	<path d="M16.607,0h0.738v10.9c0.506-0.663,1.025-1.162,1.559-1.497C19.431,9.068,20.005,8.9,20.627,8.9
		c0.704,0,1.278,0.208,1.723,0.625c0.431,0.417,0.646,1.015,0.646,1.794c0,1.012-0.414,1.941-1.241,2.789
		c-0.684,0.718-1.658,1.494-2.922,2.328c-0.636,0.41-1.138,0.783-1.507,1.118h-0.718V0z M17.346,11.823v4.891
		c1.381-1.066,2.331-1.982,2.851-2.748c0.547-0.779,0.82-1.586,0.82-2.42c0-0.403-0.161-0.752-0.482-1.046
		c-0.226-0.198-0.54-0.297-0.943-0.297c-0.328,0-0.697,0.144-1.107,0.431S17.694,11.317,17.346,11.823z"/>
	<path d="M25.125,25.773V12.888h2.566l3.05,9.123c0.281,0.85,0.486,1.485,0.615,1.907c0.146-0.469,0.375-1.157,0.686-2.065
		l3.085-8.965h2.294v12.885h-1.644V14.989l-3.744,10.784h-1.538l-3.727-10.969v10.969H25.125z"/>
	<path d="M39.636,14.576v-1.521h8.341v1.23c-0.82,0.873-1.633,2.033-2.439,3.48s-1.428,2.936-1.868,4.465
		c-0.316,1.078-0.519,2.259-0.606,3.542h-1.626c0.018-1.014,0.217-2.238,0.598-3.674s0.927-2.82,1.639-4.153
		s1.469-2.457,2.272-3.371H39.636z"/>
</g>
</svg>
