<?xml version="1.0" encoding="iso-8859-1"?>
<!-- Generator: Adobe Illustrator 15.1.0, SVG Export Plug-In . SVG Version: 6.00 Build 0)  -->
<!DOCTYPE svg PUBLIC "-//W3C//DTD SVG 1.1//EN" "http://www.w3.org/Graphics/SVG/1.1/DTD/svg11.dtd">
<svg version="1.1" id="&#x30EC;&#x30A4;&#x30E4;&#x30FC;_1"
	 xmlns="http://www.w3.org/2000/svg" xmlns:xlink="http://www.w3.org/1999/xlink" x="0px" y="0px" width="53.678px"
	 height="17.391px" viewBox="0 0 53.678 17.391" style="enable-background:new 0 0 53.678 17.391;" xml:space="preserve">
<g>
	<path d="M0,17.18V0h5.918c1.336,0,2.355,0.082,3.059,0.246c0.984,0.227,1.824,0.637,2.52,1.23c0.906,0.766,1.584,1.744,2.033,2.936
		s0.674,2.553,0.674,4.084c0,1.305-0.152,2.461-0.457,3.469s-0.695,1.842-1.172,2.502s-0.998,1.18-1.564,1.559
		s-1.25,0.666-2.051,0.861s-1.721,0.293-2.76,0.293H0z M2.273,15.152h3.668c1.133,0,2.021-0.105,2.666-0.316
		s1.158-0.508,1.541-0.891c0.539-0.539,0.959-1.264,1.26-2.174s0.451-2.014,0.451-3.311c0-1.797-0.295-3.178-0.885-4.143
		s-1.307-1.611-2.15-1.939c-0.609-0.234-1.59-0.352-2.941-0.352H2.273V15.152z"/>
	<path d="M22.723,17.18v-1.178c-0.592,0.926-1.462,1.389-2.61,1.389c-0.744,0-1.428-0.205-2.052-0.615s-1.107-0.983-1.45-1.718
		s-0.514-1.581-0.514-2.536c0-0.932,0.155-1.777,0.466-2.536s0.776-1.34,1.397-1.745s1.315-0.606,2.083-0.606
		c0.563,0,1.063,0.119,1.503,0.356s0.797,0.546,1.072,0.927V4.295h1.573V17.18H22.723z M17.722,12.521
		c0,1.195,0.252,2.089,0.756,2.681s1.099,0.888,1.784,0.888c0.691,0,1.279-0.283,1.762-0.848s0.725-1.428,0.725-2.588
		c0-1.277-0.246-2.215-0.738-2.813s-1.099-0.896-1.819-0.896c-0.703,0-1.291,0.287-1.762,0.861S17.722,11.285,17.722,12.521z"/>
	<path d="M26.687,6.114V4.295h1.582v1.819H26.687z M26.687,17.18V7.846h1.582v9.334H26.687z"/>
	<path d="M30.677,17.18V7.846h1.415v1.31c0.293-0.457,0.683-0.825,1.169-1.103s1.04-0.417,1.661-0.417
		c0.691,0,1.258,0.144,1.701,0.431s0.754,0.688,0.936,1.204c0.738-1.09,1.699-1.635,2.883-1.635c0.926,0,1.638,0.256,2.136,0.769
		s0.747,1.302,0.747,2.369v6.407h-1.573V11.3c0-0.633-0.051-1.088-0.154-1.367s-0.289-0.502-0.558-0.672s-0.586-0.255-0.949-0.255
		c-0.656,0-1.201,0.218-1.635,0.655s-0.65,1.135-0.65,2.096v5.423h-1.582v-6.064c0-0.703-0.129-1.23-0.387-1.582
		s-0.68-0.527-1.266-0.527c-0.445,0-0.857,0.117-1.235,0.352s-0.652,0.577-0.822,1.028s-0.255,1.102-0.255,1.951v4.843H30.677z"/>
	<path d="M45.337,5.982V4.462h8.341v1.23c-0.82,0.873-1.633,2.033-2.439,3.48s-1.428,2.936-1.868,4.465
		c-0.316,1.078-0.519,2.259-0.606,3.542h-1.626c0.018-1.014,0.217-2.238,0.598-3.674s0.927-2.82,1.639-4.153
		s1.469-2.457,2.272-3.371H45.337z"/>
</g>
</svg>
