<?xml version="1.0" encoding="iso-8859-1"?>
<!-- Generator: Adobe Illustrator 15.1.0, SVG Export Plug-In . SVG Version: 6.00 Build 0)  -->
<!DOCTYPE svg PUBLIC "-//W3C//DTD SVG 1.1//EN" "http://www.w3.org/Graphics/SVG/1.1/DTD/svg11.dtd">
<svg version="1.1" id="&#x30EC;&#x30A4;&#x30E4;&#x30FC;_1"
	 xmlns="http://www.w3.org/2000/svg" xmlns:xlink="http://www.w3.org/1999/xlink" x="0px" y="0px" width="15.891px"
	 height="17.766px" viewBox="0 0 15.891 17.766" style="enable-background:new 0 0 15.891 17.766;" xml:space="preserve">
<g>
	<path d="M8.613,10.734V8.719l7.277-0.012v6.375c-1.117,0.891-2.27,1.561-3.457,2.01s-2.406,0.674-3.656,0.674
		c-1.688,0-3.221-0.361-4.6-1.084s-2.42-1.768-3.123-3.135S0,10.652,0,8.965c0-1.672,0.35-3.232,1.049-4.682
		s1.705-2.525,3.018-3.229S6.891,0,8.602,0c1.242,0,2.365,0.201,3.369,0.604s1.791,0.963,2.361,1.682s1.004,1.656,1.301,2.813
		L13.582,5.66c-0.258-0.875-0.578-1.563-0.961-2.063s-0.93-0.9-1.641-1.201s-1.5-0.451-2.367-0.451
		c-1.039,0-1.938,0.158-2.695,0.475S4.549,3.152,4.084,3.668S3.258,4.75,3,5.367C2.563,6.43,2.344,7.582,2.344,8.824
		c0,1.531,0.264,2.813,0.791,3.844s1.295,1.797,2.303,2.297s2.078,0.75,3.211,0.75c0.984,0,1.945-0.189,2.883-0.568
		s1.648-0.783,2.133-1.213v-3.199H8.613z"/>
</g>
</svg>
