<?xml version="1.0" encoding="iso-8859-1"?>
<!-- Generator: Adobe Illustrator 15.1.0, SVG Export Plug-In . SVG Version: 6.00 Build 0)  -->
<!DOCTYPE svg PUBLIC "-//W3C//DTD SVG 1.1//EN" "http://www.w3.org/Graphics/SVG/1.1/DTD/svg11.dtd">
<svg version="1.1" id="&#x30EC;&#x30A4;&#x30E4;&#x30FC;_1"
	 xmlns="http://www.w3.org/2000/svg" xmlns:xlink="http://www.w3.org/1999/xlink" x="0px" y="0px" width="33.123px"
	 height="25.773px" viewBox="0 0 33.123 25.773" style="enable-background:new 0 0 33.123 25.773;" xml:space="preserve">
<g>
	<path d="M0,25.773V8.593h6.445c1.313,0,2.365,0.174,3.158,0.521s1.414,0.883,1.863,1.605s0.674,1.479,0.674,2.268
		c0,0.734-0.199,1.426-0.598,2.074s-1,1.172-1.805,1.57c1.039,0.305,1.838,0.824,2.396,1.559s0.838,1.602,0.838,2.602
		c0,0.805-0.17,1.553-0.51,2.244s-0.76,1.225-1.26,1.6s-1.127,0.658-1.881,0.85s-1.678,0.287-2.771,0.287H0z M2.273,15.812h3.715
		c1.008,0,1.73-0.066,2.168-0.199c0.578-0.172,1.014-0.457,1.307-0.855s0.439-0.898,0.439-1.5c0-0.57-0.137-1.072-0.41-1.506
		s-0.664-0.73-1.172-0.891s-1.379-0.24-2.613-0.24H2.273V15.812z M2.273,23.746h4.277c0.734,0,1.25-0.027,1.547-0.082
		c0.523-0.094,0.961-0.25,1.313-0.469s0.641-0.537,0.867-0.955s0.34-0.9,0.34-1.447c0-0.641-0.164-1.197-0.492-1.67
		s-0.783-0.805-1.365-0.996s-1.42-0.287-2.514-0.287H2.273V23.746z"/>
	<path d="M16.748,0h0.738v10.9c0.506-0.663,1.025-1.162,1.559-1.497C19.571,9.068,20.146,8.9,20.768,8.9
		c0.704,0,1.278,0.208,1.723,0.625c0.431,0.417,0.646,1.015,0.646,1.794c0,1.012-0.414,1.941-1.241,2.789
		c-0.684,0.718-1.658,1.494-2.922,2.328c-0.636,0.41-1.138,0.783-1.507,1.118h-0.718V0z M17.486,11.823v4.891
		c1.381-1.066,2.331-1.982,2.851-2.748c0.547-0.779,0.82-1.586,0.82-2.42c0-0.403-0.161-0.752-0.482-1.046
		c-0.226-0.198-0.54-0.297-0.943-0.297c-0.328,0-0.697,0.144-1.107,0.431S17.835,11.317,17.486,11.823z"/>
	<path d="M24.782,14.576v-1.521h8.341v1.23c-0.82,0.873-1.633,2.033-2.439,3.48s-1.428,2.936-1.868,4.465
		c-0.316,1.078-0.519,2.259-0.606,3.542h-1.626c0.018-1.014,0.217-2.238,0.598-3.674s0.927-2.82,1.639-4.153
		s1.469-2.457,2.272-3.371H24.782z"/>
</g>
</svg>
