<?xml version="1.0" encoding="iso-8859-1"?>
<!-- Generator: Adobe Illustrator 15.1.0, SVG Export Plug-In . SVG Version: 6.00 Build 0)  -->
<!DOCTYPE svg PUBLIC "-//W3C//DTD SVG 1.1//EN" "http://www.w3.org/Graphics/SVG/1.1/DTD/svg11.dtd">
<svg version="1.1" id="&#x30EC;&#x30A4;&#x30E4;&#x30FC;_1"
	 xmlns="http://www.w3.org/2000/svg" xmlns:xlink="http://www.w3.org/1999/xlink" x="0px" y="0px" width="25.236px"
	 height="17.18px" viewBox="0 0 25.236 17.18" style="enable-background:new 0 0 25.236 17.18;" xml:space="preserve">
<g>
	<path d="M0,17.18L6.598,0h2.449l7.031,17.18h-2.59l-2.004-5.203H4.301L2.414,17.18H0z M4.957,10.125h5.824L8.988,5.367
		C8.441,3.922,8.035,2.734,7.77,1.805C7.551,2.906,7.242,4,6.844,5.086L4.957,10.125z"/>
	<path d="M16.896,5.982V4.462h8.341v1.23c-0.82,0.873-1.633,2.033-2.439,3.48s-1.428,2.936-1.868,4.465
		c-0.316,1.078-0.519,2.259-0.606,3.542h-1.626c0.018-1.014,0.217-2.238,0.598-3.674s0.927-2.82,1.639-4.153
		s1.469-2.457,2.272-3.371H16.896z"/>
</g>
</svg>
