<?xml version="1.0" encoding="iso-8859-1"?>
<!-- Generator: Adobe Illustrator 15.1.0, SVG Export Plug-In . SVG Version: 6.00 Build 0)  -->
<!DOCTYPE svg PUBLIC "-//W3C//DTD SVG 1.1//EN" "http://www.w3.org/Graphics/SVG/1.1/DTD/svg11.dtd">
<svg version="1.1" id="&#x30EC;&#x30A4;&#x30E4;&#x30FC;_1"
	 xmlns="http://www.w3.org/2000/svg" xmlns:xlink="http://www.w3.org/1999/xlink" x="0px" y="0px" width="23.443px"
	 height="17.18px" viewBox="0 0 23.443 17.18" style="enable-background:new 0 0 23.443 17.18;" xml:space="preserve">
<g>
	<path d="M0,17.18V0h6.445c1.313,0,2.365,0.174,3.158,0.521s1.414,0.883,1.863,1.605s0.674,1.479,0.674,2.268
		c0,0.734-0.199,1.426-0.598,2.074s-1,1.172-1.805,1.57c1.039,0.305,1.838,0.824,2.396,1.559s0.838,1.602,0.838,2.602
		c0,0.805-0.17,1.553-0.51,2.244s-0.76,1.225-1.26,1.6s-1.127,0.658-1.881,0.85S7.645,17.18,6.551,17.18H0z M2.273,7.219h3.715
		c1.008,0,1.73-0.066,2.168-0.199C8.734,6.848,9.17,6.563,9.463,6.164s0.439-0.898,0.439-1.5c0-0.57-0.137-1.072-0.41-1.506
		S8.828,2.428,8.32,2.268s-1.379-0.24-2.613-0.24H2.273V7.219z M2.273,15.152h4.277c0.734,0,1.25-0.027,1.547-0.082
		c0.523-0.094,0.961-0.25,1.313-0.469s0.641-0.537,0.867-0.955s0.34-0.9,0.34-1.447c0-0.641-0.164-1.197-0.492-1.67
		S9.342,9.725,8.76,9.533S7.34,9.246,6.246,9.246H2.273V15.152z"/>
	<path d="M15.103,5.982V4.462h8.341v1.23c-0.82,0.873-1.633,2.033-2.439,3.48s-1.428,2.936-1.868,4.465
		c-0.316,1.078-0.519,2.259-0.606,3.542h-1.626c0.018-1.014,0.217-2.238,0.598-3.674s0.927-2.82,1.639-4.153
		s1.469-2.457,2.272-3.371H15.103z"/>
</g>
</svg>
