<?xml version="1.0" encoding="iso-8859-1"?>
<!-- Generator: Adobe Illustrator 15.1.0, SVG Export Plug-In . SVG Version: 6.00 Build 0)  -->
<!DOCTYPE svg PUBLIC "-//W3C//DTD SVG 1.1//EN" "http://www.w3.org/Graphics/SVG/1.1/DTD/svg11.dtd">
<svg version="1.1" id="&#x30EC;&#x30A4;&#x30E4;&#x30FC;_1"
	 xmlns="http://www.w3.org/2000/svg" xmlns:xlink="http://www.w3.org/1999/xlink" x="0px" y="0px" width="25.33px"
	 height="17.766px" viewBox="0 0 25.33 17.766" style="enable-background:new 0 0 25.33 17.766;" xml:space="preserve">
<g>
	<path d="M12.914,11.449l2.273,0.574c-0.477,1.867-1.334,3.291-2.572,4.271s-2.752,1.471-4.541,1.471
		c-1.852,0-3.357-0.377-4.518-1.131s-2.043-1.846-2.648-3.275S0,10.395,0,8.754c0-1.789,0.342-3.35,1.025-4.682
		s1.656-2.344,2.918-3.035S6.594,0,8.109,0c1.719,0,3.164,0.438,4.336,1.313s1.988,2.105,2.449,3.691l-2.238,0.527
		c-0.398-1.25-0.977-2.16-1.734-2.73S9.211,1.945,8.063,1.945c-1.32,0-2.424,0.316-3.311,0.949s-1.51,1.482-1.869,2.549
		S2.344,7.609,2.344,8.742c0,1.461,0.213,2.736,0.639,3.826s1.088,1.904,1.986,2.443S6.84,15.82,7.887,15.82
		c1.273,0,2.352-0.367,3.234-1.102S12.602,12.895,12.914,11.449z"/>
	<path d="M16.989,6.275V4.755h8.341v1.23c-0.82,0.873-1.633,2.033-2.439,3.48s-1.428,2.936-1.868,4.465
		c-0.316,1.078-0.519,2.259-0.606,3.542h-1.626c0.018-1.014,0.217-2.238,0.598-3.674s0.927-2.82,1.639-4.153
		s1.469-2.457,2.272-3.371H16.989z"/>
</g>
</svg>
