<?xml version="1.0" encoding="iso-8859-1"?>
<!-- Generator: Adobe Illustrator 15.1.0, SVG Export Plug-In . SVG Version: 6.00 Build 0)  -->
<!DOCTYPE svg PUBLIC "-//W3C//DTD SVG 1.1//EN" "http://www.w3.org/Graphics/SVG/1.1/DTD/svg11.dtd">
<svg version="1.1" id="&#x30EC;&#x30A4;&#x30E4;&#x30FC;_1"
	 xmlns="http://www.w3.org/2000/svg" xmlns:xlink="http://www.w3.org/1999/xlink" x="0px" y="0px" width="47.977px"
	 height="25.773px" viewBox="0 0 47.977 25.773" style="enable-background:new 0 0 47.977 25.773;" xml:space="preserve">
<g>
	<path d="M0,25.773V8.593h12.422v2.027H2.273v5.262h9.504v2.016H2.273v5.848H12.82v2.027H0z"/>
	<path d="M16.607,0h0.738v10.9c0.506-0.663,1.025-1.162,1.559-1.497C19.431,9.068,20.005,8.9,20.627,8.9
		c0.704,0,1.278,0.208,1.723,0.625c0.431,0.417,0.646,1.015,0.646,1.794c0,1.012-0.414,1.941-1.241,2.789
		c-0.684,0.718-1.658,1.494-2.922,2.328c-0.636,0.41-1.138,0.783-1.507,1.118h-0.718V0z M17.346,11.823v4.891
		c1.381-1.066,2.331-1.982,2.851-2.748c0.547-0.779,0.82-1.586,0.82-2.42c0-0.403-0.161-0.752-0.482-1.046
		c-0.226-0.198-0.54-0.297-0.943-0.297c-0.328,0-0.697,0.144-1.107,0.431S17.694,11.317,17.346,11.823z"/>
	<path d="M24.976,25.773v-9.334h1.415v1.31c0.293-0.457,0.683-0.825,1.169-1.103s1.04-0.417,1.661-0.417
		c0.691,0,1.258,0.144,1.701,0.431s0.754,0.688,0.936,1.204c0.738-1.09,1.699-1.635,2.883-1.635c0.926,0,1.638,0.256,2.136,0.769
		s0.747,1.302,0.747,2.369v6.407H36.05v-5.88c0-0.633-0.051-1.088-0.154-1.367s-0.289-0.502-0.558-0.672s-0.586-0.255-0.949-0.255
		c-0.656,0-1.201,0.218-1.635,0.655s-0.65,1.135-0.65,2.096v5.423h-1.582v-6.064c0-0.703-0.129-1.23-0.387-1.582
		s-0.68-0.527-1.266-0.527c-0.445,0-0.857,0.117-1.235,0.352s-0.652,0.577-0.822,1.028s-0.255,1.102-0.255,1.951v4.843H24.976z"/>
	<path d="M39.636,14.576v-1.521h8.341v1.23c-0.82,0.873-1.633,2.033-2.439,3.48s-1.428,2.936-1.868,4.465
		c-0.316,1.078-0.519,2.259-0.606,3.542h-1.626c0.018-1.014,0.217-2.238,0.598-3.674s0.927-2.82,1.639-4.153
		s1.469-2.457,2.272-3.371H39.636z"/>
</g>
</svg>
