<?xml version="1.0" encoding="iso-8859-1"?>
<!-- Generator: Adobe Illustrator 15.1.0, SVG Export Plug-In . SVG Version: 6.00 Build 0)  -->
<!DOCTYPE svg PUBLIC "-//W3C//DTD SVG 1.1//EN" "http://www.w3.org/Graphics/SVG/1.1/DTD/svg11.dtd">
<svg version="1.1" id="&#x30EC;&#x30A4;&#x30E4;&#x30FC;_1"
	 xmlns="http://www.w3.org/2000/svg" xmlns:xlink="http://www.w3.org/1999/xlink" x="0px" y="0px" width="24.367px"
	 height="25.773px" viewBox="0 0 24.367 25.773" style="enable-background:new 0 0 24.367 25.773;" xml:space="preserve">
<g>
	<path d="M0,25.773V8.593h5.918c1.336,0,2.355,0.082,3.059,0.246c0.984,0.227,1.824,0.637,2.52,1.23
		c0.906,0.766,1.584,1.744,2.033,2.936s0.674,2.553,0.674,4.084c0,1.305-0.152,2.461-0.457,3.469s-0.695,1.842-1.172,2.502
		s-0.998,1.18-1.564,1.559s-1.25,0.666-2.051,0.861s-1.721,0.293-2.76,0.293H0z M2.273,23.746h3.668
		c1.133,0,2.021-0.105,2.666-0.316s1.158-0.508,1.541-0.891c0.539-0.539,0.959-1.264,1.26-2.174s0.451-2.014,0.451-3.311
		c0-1.797-0.295-3.178-0.885-4.143s-1.307-1.611-2.15-1.939c-0.609-0.234-1.59-0.352-2.941-0.352H2.273V23.746z"/>
	<path d="M17.979,0h0.738v10.9c0.506-0.663,1.025-1.162,1.559-1.497C20.802,9.068,21.376,8.9,21.998,8.9
		c0.704,0,1.278,0.208,1.723,0.625c0.431,0.417,0.646,1.015,0.646,1.794c0,1.012-0.414,1.941-1.241,2.789
		c-0.684,0.718-1.658,1.494-2.922,2.328c-0.636,0.41-1.138,0.783-1.507,1.118h-0.718V0z M18.717,11.823v4.891
		c1.381-1.066,2.331-1.982,2.851-2.748c0.547-0.779,0.82-1.586,0.82-2.42c0-0.403-0.161-0.752-0.482-1.046
		c-0.226-0.198-0.54-0.297-0.943-0.297c-0.328,0-0.697,0.144-1.107,0.431S19.065,11.317,18.717,11.823z"/>
</g>
</svg>
