<?xml version="1.0" encoding="iso-8859-1"?>
<!-- Generator: Adobe Illustrator 15.1.0, SVG Export Plug-In . SVG Version: 6.00 Build 0)  -->
<!DOCTYPE svg PUBLIC "-//W3C//DTD SVG 1.1//EN" "http://www.w3.org/Graphics/SVG/1.1/DTD/svg11.dtd">
<svg version="1.1" id="&#x30EC;&#x30A4;&#x30E4;&#x30FC;_1"
	 xmlns="http://www.w3.org/2000/svg" xmlns:xlink="http://www.w3.org/1999/xlink" x="0px" y="0px" width="28.084px"
	 height="17.18px" viewBox="0 0 28.084 17.18" style="enable-background:new 0 0 28.084 17.18;" xml:space="preserve">
<g>
	<path d="M0,17.18V0h6.445c1.313,0,2.365,0.174,3.158,0.521s1.414,0.883,1.863,1.605s0.674,1.479,0.674,2.268
		c0,0.734-0.199,1.426-0.598,2.074s-1,1.172-1.805,1.57c1.039,0.305,1.838,0.824,2.396,1.559s0.838,1.602,0.838,2.602
		c0,0.805-0.17,1.553-0.51,2.244s-0.76,1.225-1.26,1.6s-1.127,0.658-1.881,0.85S7.645,17.18,6.551,17.18H0z M2.273,7.219h3.715
		c1.008,0,1.73-0.066,2.168-0.199C8.734,6.848,9.17,6.563,9.463,6.164s0.439-0.898,0.439-1.5c0-0.57-0.137-1.072-0.41-1.506
		S8.828,2.428,8.32,2.268s-1.379-0.24-2.613-0.24H2.273V7.219z M2.273,15.152h4.277c0.734,0,1.25-0.027,1.547-0.082
		c0.523-0.094,0.961-0.25,1.313-0.469s0.641-0.537,0.867-0.955s0.34-0.9,0.34-1.447c0-0.641-0.164-1.197-0.492-1.67
		S9.342,9.725,8.76,9.533S7.34,9.246,6.246,9.246H2.273V15.152z"/>
	<path d="M15.437,17.18V7.846h1.415v1.31c0.293-0.457,0.683-0.825,1.169-1.103s1.04-0.417,1.661-0.417
		c0.691,0,1.258,0.144,1.701,0.431s0.754,0.688,0.936,1.204c0.738-1.09,1.699-1.635,2.883-1.635c0.926,0,1.638,0.256,2.136,0.769
		s0.747,1.302,0.747,2.369v6.407h-1.573V11.3c0-0.633-0.051-1.088-0.154-1.367s-0.289-0.502-0.558-0.672s-0.586-0.255-0.949-0.255
		c-0.656,0-1.201,0.218-1.635,0.655s-0.65,1.135-0.65,2.096v5.423h-1.582v-6.064c0-0.703-0.129-1.23-0.387-1.582
		s-0.68-0.527-1.266-0.527c-0.445,0-0.857,0.117-1.235,0.352s-0.652,0.577-0.822,1.028s-0.255,1.102-0.255,1.951v4.843H15.437z"/>
</g>
</svg>
