<?xml version="1.0" encoding="iso-8859-1"?>
<!-- Generator: Adobe Illustrator 15.1.0, SVG Export Plug-In . SVG Version: 6.00 Build 0)  -->
<!DOCTYPE svg PUBLIC "-//W3C//DTD SVG 1.1//EN" "http://www.w3.org/Graphics/SVG/1.1/DTD/svg11.dtd">
<svg version="1.1" id="&#x30EC;&#x30A4;&#x30E4;&#x30FC;_1"
	 xmlns="http://www.w3.org/2000/svg" xmlns:xlink="http://www.w3.org/1999/xlink" x="0px" y="0px" width="36.264px"
	 height="26.066px" viewBox="0 0 36.264 26.066" style="enable-background:new 0 0 36.264 26.066;" xml:space="preserve">
<g>
	<path d="M8.613,19.035v-2.016l7.277-0.012v6.375c-1.117,0.891-2.27,1.561-3.457,2.01s-2.406,0.674-3.656,0.674
		c-1.688,0-3.221-0.361-4.6-1.084s-2.42-1.768-3.123-3.135S0,18.953,0,17.265c0-1.672,0.35-3.232,1.049-4.682
		s1.705-2.525,3.018-3.229S6.891,8.3,8.602,8.3c1.242,0,2.365,0.201,3.369,0.604s1.791,0.963,2.361,1.682s1.004,1.656,1.301,2.813
		l-2.051,0.563c-0.258-0.875-0.578-1.563-0.961-2.063s-0.93-0.9-1.641-1.201s-1.5-0.451-2.367-0.451
		c-1.039,0-1.938,0.158-2.695,0.475s-1.369,0.732-1.834,1.248S3.258,13.05,3,13.667c-0.438,1.063-0.656,2.215-0.656,3.457
		c0,1.531,0.264,2.813,0.791,3.844s1.295,1.797,2.303,2.297s2.078,0.75,3.211,0.75c0.984,0,1.945-0.189,2.883-0.568
		s1.648-0.783,2.133-1.213v-3.199H8.613z"/>
	<path d="M19.889,0h0.738v10.9c0.506-0.663,1.025-1.162,1.559-1.497C22.712,9.068,23.286,8.9,23.908,8.9
		c0.704,0,1.278,0.208,1.723,0.625c0.431,0.417,0.646,1.015,0.646,1.794c0,1.012-0.414,1.941-1.241,2.789
		c-0.684,0.718-1.658,1.494-2.922,2.328c-0.636,0.41-1.138,0.783-1.507,1.118h-0.718V0z M20.627,11.823v4.891
		c1.381-1.066,2.331-1.982,2.851-2.748c0.547-0.779,0.82-1.586,0.82-2.42c0-0.403-0.161-0.752-0.482-1.046
		c-0.226-0.198-0.54-0.297-0.943-0.297c-0.328,0-0.697,0.144-1.107,0.431S20.976,11.317,20.627,11.823z"/>
	<path d="M27.923,14.576v-1.521h8.341v1.23c-0.82,0.873-1.633,2.033-2.439,3.48s-1.428,2.936-1.868,4.465
		c-0.316,1.078-0.519,2.259-0.606,3.542h-1.626c0.018-1.014,0.217-2.238,0.598-3.674s0.927-2.82,1.639-4.153
		s1.469-2.457,2.272-3.371H27.923z"/>
</g>
</svg>
