<?xml version="1.0" encoding="iso-8859-1"?>
<!-- Generator: Adobe Illustrator 15.1.0, SVG Export Plug-In . SVG Version: 6.00 Build 0)  -->
<!DOCTYPE svg PUBLIC "-//W3C//DTD SVG 1.1//EN" "http://www.w3.org/Graphics/SVG/1.1/DTD/svg11.dtd">
<svg version="1.1" id="&#x30EC;&#x30A4;&#x30E4;&#x30FC;_1"
	 xmlns="http://www.w3.org/2000/svg" xmlns:xlink="http://www.w3.org/1999/xlink" x="0px" y="0px" width="55.588px"
	 height="17.766px" viewBox="0 0 55.588 17.766" style="enable-background:new 0 0 55.588 17.766;" xml:space="preserve">
<g>
	<path d="M8.613,10.734V8.719l7.277-0.012v6.375c-1.117,0.891-2.27,1.561-3.457,2.01s-2.406,0.674-3.656,0.674
		c-1.688,0-3.221-0.361-4.6-1.084s-2.42-1.768-3.123-3.135S0,10.652,0,8.965c0-1.672,0.35-3.232,1.049-4.682
		s1.705-2.525,3.018-3.229S6.891,0,8.602,0c1.242,0,2.365,0.201,3.369,0.604s1.791,0.963,2.361,1.682s1.004,1.656,1.301,2.813
		L13.582,5.66c-0.258-0.875-0.578-1.563-0.961-2.063s-0.93-0.9-1.641-1.201s-1.5-0.451-2.367-0.451
		c-1.039,0-1.938,0.158-2.695,0.475S4.549,3.152,4.084,3.668S3.258,4.75,3,5.367C2.563,6.43,2.344,7.582,2.344,8.824
		c0,1.531,0.264,2.813,0.791,3.844s1.295,1.797,2.303,2.297s2.078,0.75,3.211,0.75c0.984,0,1.945-0.189,2.883-0.568
		s1.648-0.783,2.133-1.213v-3.199H8.613z"/>
	<path d="M24.633,17.473v-1.178c-0.592,0.926-1.462,1.389-2.61,1.389c-0.744,0-1.428-0.205-2.052-0.615s-1.107-0.983-1.45-1.718
		s-0.514-1.581-0.514-2.536c0-0.932,0.155-1.777,0.466-2.536s0.776-1.34,1.397-1.745s1.315-0.606,2.083-0.606
		c0.563,0,1.063,0.119,1.503,0.356s0.797,0.546,1.072,0.927V4.588h1.573v12.885H24.633z M19.632,12.814
		c0,1.195,0.252,2.089,0.756,2.681s1.099,0.888,1.784,0.888c0.691,0,1.279-0.283,1.762-0.848s0.725-1.428,0.725-2.588
		c0-1.277-0.246-2.215-0.738-2.813s-1.099-0.896-1.819-0.896c-0.703,0-1.291,0.287-1.762,0.861S19.632,11.578,19.632,12.814z"/>
	<path d="M28.597,6.407V4.588h1.582v1.819H28.597z M28.597,17.473V8.139h1.582v9.334H28.597z"/>
	<path d="M32.587,17.473V8.139h1.415v1.31c0.293-0.457,0.683-0.825,1.169-1.103s1.04-0.417,1.661-0.417
		c0.691,0,1.258,0.144,1.701,0.431s0.754,0.688,0.936,1.204c0.738-1.09,1.699-1.635,2.883-1.635c0.926,0,1.638,0.256,2.136,0.769
		s0.747,1.302,0.747,2.369v6.407h-1.573v-5.88c0-0.633-0.051-1.088-0.154-1.367s-0.289-0.502-0.558-0.672S42.363,9.299,42,9.299
		c-0.656,0-1.201,0.218-1.635,0.655s-0.65,1.135-0.65,2.096v5.423h-1.582v-6.064c0-0.703-0.129-1.23-0.387-1.582
		s-0.68-0.527-1.266-0.527c-0.445,0-0.857,0.117-1.235,0.352s-0.652,0.577-0.822,1.028s-0.255,1.102-0.255,1.951v4.843H32.587z"/>
	<path d="M47.247,6.275V4.755h8.341v1.23c-0.82,0.873-1.633,2.033-2.439,3.48s-1.428,2.936-1.868,4.465
		c-0.316,1.078-0.519,2.259-0.606,3.542h-1.626c0.018-1.014,0.217-2.238,0.598-3.674s0.927-2.82,1.639-4.153
		s1.469-2.457,2.272-3.371H47.247z"/>
</g>
</svg>
