<?xml version="1.0" encoding="iso-8859-1"?>
<!-- Generator: Adobe Illustrator 15.1.0, SVG Export Plug-In . SVG Version: 6.00 Build 0)  -->
<!DOCTYPE svg PUBLIC "-//W3C//DTD SVG 1.1//EN" "http://www.w3.org/Graphics/SVG/1.1/DTD/svg11.dtd">
<svg version="1.1" id="&#x30EC;&#x30A4;&#x30E4;&#x30FC;_1"
	 xmlns="http://www.w3.org/2000/svg" xmlns:xlink="http://www.w3.org/1999/xlink" x="0px" y="0px" width="46.643px"
	 height="21.273px" viewBox="0 0 46.643 21.273" style="enable-background:new 0 0 46.643 21.273;" xml:space="preserve">
<g>
	<path d="M0,21.273V4.093h11.59v2.027H2.273v5.32h8.063v2.027H2.273v7.805H0z"/>
	<path d="M16.369,12.684v4.871h-0.718v-4.604l-1.487,0.533v-2.256l1.487-0.523V8.06l-1.487,0.523V6.337l1.487-0.523V1.466h0.718
		v4.091l2.389-0.861V0h0.718v4.45l1.497-0.523v2.225l-1.497,0.523v2.646l1.497-0.523v2.225l-1.497,0.523v4.512h-0.718v-4.235
		L16.369,12.684z M16.369,10.459l2.389-0.882V6.932l-2.389,0.882V10.459z"/>
	<path d="M23.642,21.273v-9.334h1.415v1.31c0.293-0.457,0.683-0.825,1.169-1.103s1.04-0.417,1.661-0.417
		c0.691,0,1.258,0.144,1.701,0.431s0.754,0.688,0.936,1.204c0.738-1.09,1.699-1.635,2.883-1.635c0.926,0,1.638,0.256,2.136,0.769
		s0.747,1.302,0.747,2.369v6.407h-1.573v-5.88c0-0.633-0.051-1.088-0.154-1.367s-0.289-0.502-0.558-0.672s-0.586-0.255-0.949-0.255
		c-0.656,0-1.201,0.218-1.635,0.655s-0.65,1.135-0.65,2.096v5.423h-1.582v-6.064c0-0.703-0.129-1.23-0.387-1.582
		s-0.68-0.527-1.266-0.527c-0.445,0-0.857,0.117-1.235,0.352s-0.652,0.577-0.822,1.028s-0.255,1.102-0.255,1.951v4.843H23.642z"/>
	<path d="M38.302,10.076V8.555h8.341v1.23c-0.82,0.873-1.633,2.033-2.439,3.48s-1.428,2.936-1.868,4.465
		c-0.316,1.078-0.519,2.259-0.606,3.542h-1.626c0.018-1.014,0.217-2.238,0.598-3.674s0.927-2.82,1.639-4.153
		s1.469-2.457,2.272-3.371H38.302z"/>
</g>
</svg>
