<?xml version="1.0" encoding="iso-8859-1"?>
<!-- Generator: Adobe Illustrator 15.1.0, SVG Export Plug-In . SVG Version: 6.00 Build 0)  -->
<!DOCTYPE svg PUBLIC "-//W3C//DTD SVG 1.1//EN" "http://www.w3.org/Graphics/SVG/1.1/DTD/svg11.dtd">
<svg version="1.1" id="&#x30EC;&#x30A4;&#x30E4;&#x30FC;_1"
	 xmlns="http://www.w3.org/2000/svg" xmlns:xlink="http://www.w3.org/1999/xlink" x="0px" y="0px" width="74.656px"
	 height="21.566px" viewBox="0 0 74.656 21.566" style="enable-background:new 0 0 74.656 21.566;" xml:space="preserve">
<g>
	<path d="M8.613,14.535v-2.016l7.277-0.012v6.375c-1.117,0.891-2.27,1.561-3.457,2.01s-2.406,0.674-3.656,0.674
		c-1.688,0-3.221-0.361-4.6-1.084s-2.42-1.768-3.123-3.135S0,14.453,0,12.765c0-1.672,0.35-3.232,1.049-4.682
		s1.705-2.525,3.018-3.229S6.891,3.8,8.602,3.8c1.242,0,2.365,0.201,3.369,0.604s1.791,0.963,2.361,1.682s1.004,1.656,1.301,2.813
		L13.582,9.46c-0.258-0.875-0.578-1.563-0.961-2.063s-0.93-0.9-1.641-1.201s-1.5-0.451-2.367-0.451
		c-1.039,0-1.938,0.158-2.695,0.475S4.549,6.953,4.084,7.468S3.258,8.55,3,9.167c-0.438,1.063-0.656,2.215-0.656,3.457
		c0,1.531,0.264,2.813,0.791,3.844s1.295,1.797,2.303,2.297s2.078,0.75,3.211,0.75c0.984,0,1.945-0.189,2.883-0.568
		s1.648-0.783,2.133-1.213v-3.199H8.613z"/>
	<path d="M21.068,12.684v4.871H20.35v-4.604l-1.487,0.533v-2.256l1.487-0.523V8.06l-1.487,0.523V6.337l1.487-0.523V1.466h0.718
		v4.091l2.389-0.861V0h0.718v4.45l1.497-0.523v2.225l-1.497,0.523v2.646l1.497-0.523v2.225l-1.497,0.523v4.512h-0.718v-4.235
		L21.068,12.684z M21.068,10.459l2.389-0.882V6.932l-2.389,0.882V10.459z"/>
	<path d="M28.341,21.273v-9.334h1.415v1.31c0.293-0.457,0.683-0.825,1.169-1.103s1.04-0.417,1.661-0.417
		c0.691,0,1.258,0.144,1.701,0.431s0.754,0.688,0.936,1.204c0.738-1.09,1.699-1.635,2.883-1.635c0.926,0,1.638,0.256,2.136,0.769
		s0.747,1.302,0.747,2.369v6.407h-1.573v-5.88c0-0.633-0.051-1.088-0.154-1.367s-0.289-0.502-0.558-0.672s-0.586-0.255-0.949-0.255
		c-0.656,0-1.201,0.218-1.635,0.655s-0.65,1.135-0.65,2.096v5.423h-1.582v-6.064c0-0.703-0.129-1.23-0.387-1.582
		s-0.68-0.527-1.266-0.527c-0.445,0-0.857,0.117-1.235,0.352s-0.652,0.577-0.822,1.028s-0.255,1.102-0.255,1.951v4.843H28.341z"/>
	<path d="M43.001,10.076V8.555h8.341v1.23c-0.82,0.873-1.633,2.033-2.439,3.48s-1.428,2.936-1.868,4.465
		c-0.316,1.078-0.519,2.259-0.606,3.542h-1.626c0.018-1.014,0.217-2.238,0.598-3.674s0.927-2.82,1.639-4.153
		s1.469-2.457,2.272-3.371H43.001z"/>
	<path d="M55.434,17.138c-0.679-0.857-1.253-1.859-1.723-3.008s-0.704-2.338-0.704-3.568c0-1.084,0.175-2.124,0.526-3.117
		c0.41-1.153,1.043-2.301,1.9-3.445h0.882c-0.551,0.948-0.916,1.625-1.094,2.03c-0.278,0.629-0.497,1.285-0.656,1.969
		c-0.196,0.852-0.294,1.709-0.294,2.57c0,2.192,0.681,4.382,2.044,6.569H55.434z"/>
	<path d="M57.926,3.326h0.492v7.267c0.337-0.442,0.684-0.775,1.039-0.998c0.351-0.223,0.734-0.335,1.148-0.335
		c0.469,0,0.852,0.139,1.148,0.417c0.287,0.278,0.431,0.677,0.431,1.196c0,0.674-0.276,1.294-0.827,1.859
		c-0.456,0.479-1.105,0.996-1.948,1.552c-0.424,0.273-0.759,0.522-1.005,0.745h-0.479V3.326z M58.418,11.208v3.261
		c0.92-0.711,1.554-1.322,1.9-1.832c0.365-0.52,0.547-1.057,0.547-1.613c0-0.269-0.107-0.501-0.321-0.697
		c-0.15-0.132-0.36-0.198-0.629-0.198c-0.219,0-0.465,0.096-0.738,0.287S58.65,10.87,58.418,11.208z"/>
	<path d="M63.295,11.566l1.292-0.109c0.096,0.629,0.318,1.102,0.667,1.418s0.769,0.475,1.261,0.475c0.592,0,1.094-0.223,1.504-0.67
		s0.615-1.039,0.615-1.777c0-0.702-0.197-1.255-0.591-1.661s-0.91-0.608-1.548-0.608c-0.396,0-0.754,0.09-1.073,0.27
		s-0.57,0.414-0.752,0.701l-1.155-0.15l0.971-5.147h4.983v1.176h-3.999l-0.54,2.693c0.602-0.419,1.233-0.629,1.894-0.629
		c0.875,0,1.613,0.303,2.215,0.909s0.902,1.385,0.902,2.338c0,0.907-0.264,1.691-0.793,2.352c-0.643,0.811-1.52,1.217-2.632,1.217
		c-0.912,0-1.655-0.255-2.232-0.766S63.377,12.41,63.295,11.566z"/>
	<path d="M72.229,17.138h-0.882c1.363-2.188,2.044-4.377,2.044-6.569c0-0.857-0.098-1.707-0.294-2.55
		c-0.155-0.684-0.372-1.34-0.649-1.969c-0.178-0.41-0.544-1.094-1.101-2.051h0.882c0.857,1.144,1.49,2.292,1.9,3.445
		c0.351,0.994,0.526,2.033,0.526,3.117c0,1.23-0.236,2.42-0.708,3.568S72.904,16.281,72.229,17.138z"/>
</g>
</svg>
