<?xml version="1.0" encoding="iso-8859-1"?>
<!-- Generator: Adobe Illustrator 15.1.0, SVG Export Plug-In . SVG Version: 6.00 Build 0)  -->
<!DOCTYPE svg PUBLIC "-//W3C//DTD SVG 1.1//EN" "http://www.w3.org/Graphics/SVG/1.1/DTD/svg11.dtd">
<svg version="1.1" id="&#x30EC;&#x30A4;&#x30E4;&#x30FC;_1"
	 xmlns="http://www.w3.org/2000/svg" xmlns:xlink="http://www.w3.org/1999/xlink" x="0px" y="0px" width="50.889px"
	 height="17.391px" viewBox="0 0 50.889 17.391" style="enable-background:new 0 0 50.889 17.391;" xml:space="preserve">
<g>
	<path d="M0,17.18V0h11.59v2.027H2.273v5.32h8.063v2.027H2.273v7.805H0z"/>
	<path d="M19.934,17.18v-1.178c-0.592,0.926-1.462,1.389-2.61,1.389c-0.744,0-1.428-0.205-2.052-0.615s-1.107-0.983-1.45-1.718
		s-0.514-1.581-0.514-2.536c0-0.932,0.155-1.777,0.466-2.536s0.776-1.34,1.397-1.745s1.315-0.606,2.083-0.606
		c0.563,0,1.063,0.119,1.503,0.356s0.797,0.546,1.072,0.927V4.295h1.573V17.18H19.934z M14.933,12.521
		c0,1.195,0.252,2.089,0.756,2.681s1.099,0.888,1.784,0.888c0.691,0,1.279-0.283,1.762-0.848s0.725-1.428,0.725-2.588
		c0-1.277-0.246-2.215-0.738-2.813s-1.099-0.896-1.819-0.896c-0.703,0-1.291,0.287-1.762,0.861S14.933,11.285,14.933,12.521z"/>
	<path d="M23.897,6.114V4.295h1.582v1.819H23.897z M23.897,17.18V7.846h1.582v9.334H23.897z"/>
	<path d="M27.888,17.18V7.846h1.415v1.31c0.293-0.457,0.683-0.825,1.169-1.103s1.04-0.417,1.661-0.417
		c0.691,0,1.258,0.144,1.701,0.431s0.754,0.688,0.936,1.204c0.738-1.09,1.699-1.635,2.883-1.635c0.926,0,1.638,0.256,2.136,0.769
		s0.747,1.302,0.747,2.369v6.407h-1.573V11.3c0-0.633-0.051-1.088-0.154-1.367S38.52,9.431,38.25,9.261s-0.586-0.255-0.949-0.255
		c-0.656,0-1.201,0.218-1.635,0.655s-0.65,1.135-0.65,2.096v5.423h-1.582v-6.064c0-0.703-0.129-1.23-0.387-1.582
		s-0.68-0.527-1.266-0.527c-0.445,0-0.857,0.117-1.235,0.352s-0.652,0.577-0.822,1.028s-0.255,1.102-0.255,1.951v4.843H27.888z"/>
	<path d="M42.548,5.982V4.462h8.341v1.23c-0.82,0.873-1.633,2.033-2.439,3.48s-1.428,2.936-1.868,4.465
		c-0.316,1.078-0.519,2.259-0.606,3.542H44.35c0.018-1.014,0.217-2.238,0.598-3.674s0.927-2.82,1.639-4.153s1.469-2.457,2.272-3.371
		H42.548z"/>
</g>
</svg>
